<?xml version="1.0" standalone="no"?>
<!DOCTYPE svg PUBLIC "-//W3C//DTD SVG 20010904//EN"
 "http://www.w3.org/TR/2001/REC-SVG-20010904/DTD/svg10.dtd">
<svg version="1.0" xmlns="http://www.w3.org/2000/svg"
 width="560.000000pt" height="560.000000pt" viewBox="0 0 560.000000 560.000000"
 preserveAspectRatio="xMidYMid meet">
<metadata>
Created by potrace 1.11, written by Peter Selinger 2001-2013
</metadata>
<g transform="translate(0.000000,560.000000) scale(0.100000,-0.100000)"
fill="#000000" stroke="none">
<path d="M750 3025 l0 -2335 120 0 120 0 0 -110 0 -110 125 0 125 0 0 -115 0
-115 1810 0 1810 0 0 2335 0 2335 -125 0 -125 0 0 115 0 114 -122 3 -123 3 -3
108 -3 107 -1804 0 -1805 0 0 -2335z m3450 0 l0 -2175 -1645 0 -1645 0 0 2175
0 2175 1645 0 1645 0 0 -2175z m248 -217 l-3 -2173 -1648 -3 -1648 -2 3 27 3
28 1603 3 1602 2 0 2145 0 2145 45 0 45 0 -2 -2172z m242 -233 l0 -2175 -1645
0 -1645 0 0 35 0 35 1605 0 1605 0 0 2140 0 2140 40 0 40 0 0 -2175z"/>
<path d="M1510 3520 l0 -80 1045 0 1045 0 0 80 0 80 -1045 0 -1045 0 0 -80z"/>
<path d="M1734 3007 c-3 -8 -4 -45 -2 -83 l3 -69 798 -3 797 -2 0 85 0 85
-795 0 c-659 0 -797 -2 -801 -13z"/>
<path d="M1510 2350 l0 -80 1045 0 1045 0 0 80 0 80 -1045 0 -1045 0 0 -80z"/>
</g>
</svg>
